<?xml version="1.0" encoding="utf-8"?>
<!-- Generator: Adobe Illustrator 26.0.2, SVG Export Plug-In . SVG Version: 6.00 Build 0)  -->
<svg version="1.1" id="Layer_1" xmlns="http://www.w3.org/2000/svg" xmlns:xlink="http://www.w3.org/1999/xlink" x="0px" y="0px"
	 viewBox="0 0 1080 1350.11" style="enable-background:new 0 0 1080 1350.11;" xml:space="preserve">
<g>
	<path d="M64.24,659.04c4.5,0,8.29,1.54,11.38,4.63c3.09,3.09,4.63,6.88,4.63,11.38c0,4.59-1.52,8.41-4.57,11.45
		c-3.05,3.04-6.82,4.57-11.32,4.57s-8.32-1.57-11.45-4.7c-3.13-3.13-4.7-6.91-4.7-11.32c0-4.32,1.57-8.08,4.7-11.25
		C56.05,660.63,59.82,659.04,64.24,659.04"/>
	<path d="M540,1269.26c4.5,0,8.29,1.54,11.38,4.63c3.09,3.09,4.63,6.88,4.63,11.38c0,4.59-1.52,8.41-4.57,11.45
		c-3.05,3.04-6.82,4.57-11.32,4.57s-8.32-1.57-11.45-4.7c-3.14-3.13-4.7-6.91-4.7-11.32c0-4.32,1.57-8.08,4.7-11.25
		C531.81,1270.85,535.59,1269.26,540,1269.26"/>
	<path d="M540,48.22c4.5,0,8.29,1.54,11.38,4.63c3.09,3.09,4.63,6.88,4.63,11.38c0,4.59-1.52,8.4-4.57,11.45
		c-3.05,3.04-6.82,4.57-11.32,4.57s-8.32-1.57-11.45-4.7c-3.14-3.13-4.7-6.9-4.7-11.32c0-4.32,1.57-8.08,4.7-11.25
		C531.81,49.81,535.59,48.22,540,48.22"/>
	<path d="M1015.76,659.04c4.5,0,8.29,1.54,11.38,4.63c3.09,3.09,4.63,6.88,4.63,11.38c0,4.59-1.52,8.41-4.57,11.45
		c-3.05,3.04-6.82,4.57-11.32,4.57s-8.32-1.57-11.45-4.7c-3.14-3.13-4.7-6.91-4.7-11.32c0-4.32,1.57-8.08,4.7-11.25
		C1007.58,660.63,1011.35,659.04,1015.76,659.04"/>
</g>
</svg>
