<?xml version="1.0" encoding="utf-8"?>
<!-- Generator: Adobe Illustrator 26.0.2, SVG Export Plug-In . SVG Version: 6.00 Build 0)  -->
<svg version="1.1" id="Layer_1" xmlns="http://www.w3.org/2000/svg" xmlns:xlink="http://www.w3.org/1999/xlink" x="0px" y="0px"
	 viewBox="0 0 1080 1350.12" style="enable-background:new 0 0 1080 1350.12;" xml:space="preserve">
<g>
	<path d="M64.24,48.22c4.5,0,8.29,1.54,11.38,4.63c3.09,3.09,4.63,6.88,4.63,11.38c0,4.59-1.52,8.4-4.57,11.45
		c-3.05,3.04-6.82,4.57-11.32,4.57c-4.5,0-8.32-1.57-11.45-4.7c-3.14-3.13-4.7-6.9-4.7-11.32c0-4.32,1.57-8.08,4.7-11.25
		C56.05,49.81,59.82,48.22,64.24,48.22"/>
	<path d="M64.24,1269.27c4.5,0,8.29,1.54,11.38,4.63c3.09,3.09,4.63,6.88,4.63,11.38c0,4.59-1.52,8.41-4.57,11.45
		c-3.05,3.04-6.82,4.57-11.32,4.57c-4.5,0-8.32-1.57-11.45-4.7c-3.14-3.13-4.7-6.91-4.7-11.32c0-4.32,1.57-8.08,4.7-11.25
		C56.05,1270.85,59.82,1269.27,64.24,1269.27"/>
	<path d="M1015.76,48.22c4.5,0,8.29,1.54,11.38,4.63c3.09,3.09,4.63,6.88,4.63,11.38c0,4.59-1.52,8.4-4.57,11.45
		c-3.05,3.04-6.82,4.57-11.32,4.57c-4.5,0-8.32-1.57-11.45-4.7c-3.14-3.13-4.7-6.9-4.7-11.32c0-4.32,1.57-8.08,4.7-11.25
		C1007.58,49.81,1011.35,48.22,1015.76,48.22"/>
	<path d="M1015.76,1269.27c4.5,0,8.29,1.54,11.38,4.63c3.09,3.09,4.63,6.88,4.63,11.38c0,4.59-1.52,8.41-4.57,11.45
		c-3.05,3.04-6.82,4.57-11.32,4.57c-4.5,0-8.32-1.57-11.45-4.7c-3.14-3.13-4.7-6.91-4.7-11.32c0-4.32,1.57-8.08,4.7-11.25
		C1007.58,1270.85,1011.35,1269.27,1015.76,1269.27"/>
</g>
</svg>
