<?xml version="1.0" encoding="utf-8"?>
<!-- Generator: Adobe Illustrator 26.0.2, SVG Export Plug-In . SVG Version: 6.00 Build 0)  -->
<svg version="1.1" id="Layer_1" xmlns="http://www.w3.org/2000/svg" xmlns:xlink="http://www.w3.org/1999/xlink" x="0px" y="0px"
	 viewBox="0 0 439.61 523.18" style="enable-background:new 0 0 439.61 523.18;" xml:space="preserve">
<path d="M182.36,344.04h20.58l52,67.74v-49.03c0-4.93-1.13-8.59-3.38-10.96c-2.06-2.18-5.13-3.3-9.21-3.38v-4.37h30.2v4.37
	c-3.09,0-5.39,0.43-6.91,1.28c-1.52,0.86-2.85,2.41-3.98,4.66c-1.13,2.25-1.7,4.72-1.7,7.4v68.5h-5.48l-53.81-70.52v52.04
	c0,4.71,1.18,8.22,3.56,10.53c2.37,2.31,6.04,3.51,11.02,3.59v4.37h-32.88v-4.37c4.12-0.15,7.38-1.5,9.79-4.05
	c2.41-2.54,3.61-5.65,3.61-9.34v-58.39l-1.03-1.12c-1.94-2.12-3.32-3.37-4.13-3.76c-1.12-0.54-2.58-0.82-4.36-0.82h-3.89V344.04z
	 M276.9,348.41h7.05c1.75,0,3.03,0.37,3.85,1.11c0.82,0.74,1.22,1.87,1.22,3.38v68.32c0,1.52-0.47,2.67-1.4,3.47
	c-0.93,0.8-2.55,1.2-4.84,1.2h-5.89v4.37h71.06l1.46-32.12h-4.2c-2.21,18.5-10.56,27.75-25.03,27.75h-13.33
	c-1.94,0-3.33-0.33-4.16-0.99c-0.83-0.66-1.25-1.61-1.25-2.86v-34.28h6.74c4.3,0,7.7,1.43,10.2,4.29c2.5,2.86,3.85,7.59,4.04,14.2
	h4.02v-39.93h-4.02c-0.2,5.87-1.52,10.22-3.98,13.06c-2.46,2.84-5.67,4.26-9.62,4.26h-7.38V352.9c0-1.52,0.35-2.64,1.05-3.38
	c0.7-0.74,1.73-1.11,3.09-1.11h16.88c5.39,0,9.77,1.83,13.12,5.48c3.36,3.65,5.81,10.07,7.37,19.24h3.91l-1.63-29.09H276.9V348.41z
	 M135.28,423.2c19.46,0,35.29-15.83,35.29-35.29c0-19.46-15.83-35.29-35.29-35.29s-35.29,15.83-35.29,35.29
	C99.98,407.36,115.82,423.2,135.28,423.2 M135.28,342.81c24.9,0,45.09,20.19,45.09,45.09c0,24.9-20.19,45.09-45.09,45.09
	c-24.9,0-45.09-20.19-45.09-45.09C90.18,363,110.37,342.81,135.28,342.81 M182.36,95.79h3.89c1.78,0,3.23,0.27,4.36,0.82
	c0.81,0.39,2.19,1.64,4.13,3.76l1.03,1.12v58.39c0,3.69-1.2,6.8-3.61,9.34c-2.41,2.54-5.67,3.89-9.79,4.05v4.37h32.88v-4.37
	c-4.97-0.08-8.65-1.27-11.02-3.59c-2.37-2.31-3.56-5.82-3.56-10.53v-52.03l53.81,70.52h5.48v-68.5c0-2.68,0.57-5.15,1.7-7.4
	c1.13-2.25,2.46-3.81,3.98-4.66c1.52-0.86,3.83-1.28,6.91-1.28v-4.37h-30.2v4.37c4.08,0.08,7.15,1.2,9.21,3.38
	c2.25,2.37,3.38,6.02,3.38,10.96v49.03l-52-67.74h-20.58V95.79z M276.9,95.79h7.05c1.75,0,3.03,0.37,3.85,1.11
	c0.82,0.74,1.22,1.87,1.22,3.38v68.32c0,1.52-0.47,2.67-1.4,3.47c-0.93,0.8-2.55,1.2-4.84,1.2h-5.89v4.37h71.06l1.46-32.12h-4.2
	c-2.21,18.5-10.56,27.75-25.03,27.75h-13.33c-1.94,0-3.33-0.33-4.16-0.99c-0.83-0.66-1.25-1.61-1.25-2.86v-34.28h6.74
	c4.3,0,7.7,1.43,10.2,4.28c2.5,2.86,3.85,7.59,4.04,14.2h4.02v-39.93h-4.02c-0.2,5.87-1.52,10.22-3.98,13.06
	c-2.46,2.84-5.67,4.26-9.62,4.26h-7.38v-30.72c0-1.51,0.35-2.64,1.05-3.38c0.7-0.74,1.73-1.11,3.09-1.11h16.88
	c5.39,0,9.77,1.83,13.12,5.48c3.36,3.65,5.81,10.07,7.37,19.24h3.91l-1.63-29.09H276.9V95.79z M135.28,170.57
	c19.46,0,35.29-15.83,35.29-35.29s-15.83-35.29-35.29-35.29s-35.29,15.83-35.29,35.29S115.82,170.57,135.28,170.57 M135.28,90.18
	c24.9,0,45.09,20.19,45.09,45.09c0,24.9-20.19,45.09-45.09,45.09c-24.9,0-45.09-20.19-45.09-45.09
	C90.18,110.37,110.37,90.18,135.28,90.18 M189.72,220.55c-0.27,7.77-2.09,13.82-5.44,18.13c-2.26,2.88-5.56,4.68-9.89,5.42v4.08h9.5
	v36.67c0,4,1.27,7.24,3.82,9.71c2.54,2.47,6.07,3.7,10.58,3.7c4.9,0,8.88-1.76,11.95-5.28c3.07-3.52,4.72-8.91,4.96-16.18h-3.91
	c-0.31,5.63-1.4,9.68-3.26,12.12c-1.87,2.45-4.12,3.67-6.76,3.67c-2.21,0-4.04-0.81-5.48-2.42c-1.44-1.61-2.16-3.93-2.16-6.97
	v-35.04h17.66v-5.36h-17.66v-22.27H189.72 M244.56,245.32c4.62,0,8.33,1.89,11.1,5.65c2.78,3.77,4.17,9.87,4.17,18.31
	c0,9.09-1.41,15.64-4.23,19.65c-2.82,4-6.5,6-11.05,6c-4.39,0-7.98-2-10.76-6c-2.78-4-4.17-10.34-4.17-19
	c0-8.51,1.4-14.74,4.2-18.68C236.63,247.3,240.2,245.32,244.56,245.32 M244.56,241.18c-7.23,0-13.31,2.68-18.25,8.04
	c-4.94,5.36-7.4,12.34-7.4,20.93c0,8.55,2.46,15.51,7.38,20.87c4.92,5.36,10.91,8.04,17.98,8.04c4.78,0,9.24-1.22,13.38-3.67
	c4.14-2.45,7.33-5.78,9.56-10c2.23-4.22,3.35-9.32,3.35-15.3c0-8.67-2.5-15.65-7.49-20.96C258.07,243.84,251.9,241.18,244.56,241.18
	"/>
</svg>
