<?xml version="1.0" encoding="utf-8"?>
<!-- Generator: Adobe Illustrator 26.0.2, SVG Export Plug-In . SVG Version: 6.00 Build 0)  -->
<svg version="1.1" id="Layer_1" xmlns="http://www.w3.org/2000/svg" xmlns:xlink="http://www.w3.org/1999/xlink" x="0px" y="0px"
	 viewBox="0 0 1325.99 368.98" style="enable-background:new 0 0 1325.99 368.98;" xml:space="preserve">
<g>
	<path d="M248.7,124.67h28.07l70.92,92.38v-66.86c0-6.73-1.54-11.71-4.61-14.95c-2.81-2.97-7-4.5-12.56-4.61v-5.96h41.18v5.96
		c-4.21,0-7.35,0.58-9.43,1.75c-2.08,1.16-3.89,3.29-5.43,6.36c-1.54,3.08-2.31,6.44-2.31,10.1v93.42h-7.47l-73.38-96.18v70.96
		c0,6.42,1.61,11.21,4.85,14.36c3.23,3.16,8.24,4.79,15.03,4.89v5.96H248.7v-5.96c5.62-0.21,10.07-2.05,13.36-5.52
		c3.29-3.47,4.93-7.71,4.93-12.74V138.4l-1.4-1.53c-2.65-2.89-4.53-4.59-5.63-5.12c-1.53-0.74-3.51-1.11-5.94-1.11h-5.31V124.67z"/>
	<path d="M377.64,124.67h93.18l2.23,39.67h-5.33c-2.12-12.51-5.46-21.25-10.04-26.24c-4.58-4.98-10.55-7.47-17.9-7.47h-23.02
		c-1.85,0-3.26,0.5-4.21,1.51c-0.95,1.01-1.43,2.55-1.43,4.61v41.9h10.07c5.39,0,9.76-1.94,13.12-5.8
		c3.36-3.87,5.16-9.81,5.43-17.81h5.49v54.46h-5.49c-0.27-9.01-2.1-15.47-5.51-19.36c-3.41-3.9-8.05-5.84-13.91-5.84h-9.2v46.75
		c0,1.7,0.57,2.99,1.71,3.9c1.14,0.9,3.03,1.35,5.68,1.35h18.18c19.74,0,31.12-12.61,34.14-37.84h5.73l-1.99,43.81h-96.91v-5.96
		h8.03c3.13,0,5.33-0.54,6.6-1.63c1.27-1.08,1.91-2.66,1.91-4.73v-93.18c0-2.07-0.55-3.6-1.67-4.61c-1.11-1-2.86-1.51-5.24-1.51
		h-9.62V124.67z"/>
	<path d="M184.49,232.62c-26.54,0-48.13-21.59-48.13-48.13s21.59-48.13,48.13-48.13s48.13,21.59,48.13,48.13
		S211.03,232.62,184.49,232.62 M184.49,122.99c-33.96,0-61.5,27.53-61.5,61.5c0,33.96,27.53,61.5,61.5,61.5
		c33.96,0,61.5-27.53,61.5-61.5C245.99,150.53,218.45,122.99,184.49,122.99"/>
	<path d="M975.15,124.67h28.07l70.92,92.38v-66.86c0-6.73-1.54-11.71-4.61-14.95c-2.81-2.97-7-4.5-12.56-4.61v-5.96h41.18v5.96
		c-4.21,0-7.35,0.58-9.43,1.75c-2.08,1.16-3.89,3.29-5.43,6.36c-1.54,3.08-2.31,6.44-2.31,10.1v93.42h-7.47l-73.38-96.18v70.96
		c0,6.42,1.61,11.21,4.85,14.36c3.23,3.16,8.24,4.79,15.03,4.89v5.96h-44.84v-5.96c5.62-0.21,10.07-2.05,13.36-5.52
		c3.29-3.47,4.93-7.71,4.93-12.74V138.4l-1.4-1.53c-2.65-2.89-4.53-4.59-5.63-5.12c-1.53-0.74-3.51-1.11-5.94-1.11h-5.31V124.67z"/>
	<path d="M1104.09,124.67h93.18l2.23,39.67h-5.33c-2.12-12.51-5.46-21.25-10.04-26.24c-4.58-4.98-10.55-7.47-17.9-7.47h-23.02
		c-1.85,0-3.26,0.5-4.21,1.51c-0.95,1.01-1.43,2.55-1.43,4.61v41.9h10.07c5.39,0,9.76-1.94,13.12-5.8
		c3.36-3.87,5.16-9.81,5.43-17.81h5.49v54.46h-5.49c-0.27-9.01-2.1-15.47-5.51-19.36c-3.41-3.9-8.05-5.84-13.91-5.84h-9.2v46.75
		c0,1.7,0.57,2.99,1.71,3.9c1.14,0.9,3.03,1.35,5.68,1.35h18.18c19.74,0,31.12-12.61,34.14-37.84h5.73l-1.99,43.81h-96.91v-5.96
		h8.03c3.13,0,5.33-0.54,6.6-1.63c1.27-1.08,1.91-2.66,1.91-4.73v-93.18c0-2.07-0.55-3.6-1.67-4.61c-1.11-1-2.86-1.51-5.24-1.51
		h-9.62V124.67z"/>
	<path d="M910.94,232.62c-26.54,0-48.13-21.59-48.13-48.13s21.59-48.13,48.13-48.13s48.13,21.59,48.13,48.13
		S937.48,232.62,910.94,232.62 M910.94,122.99c-33.96,0-61.5,27.53-61.5,61.5c0,33.96,27.53,61.5,61.5,61.5
		c33.96,0,61.5-27.53,61.5-61.5C972.44,150.53,944.9,122.99,910.94,122.99"/>
	<path d="M618.41,137.39h5.33v30.37h24.09v7.32h-24.09v47.78c0,4.13,0.98,7.3,2.94,9.5c1.96,2.2,4.45,3.3,7.47,3.3
		c3.6,0,6.68-1.67,9.22-5.01c2.54-3.34,4.03-8.85,4.45-16.54h5.33c-0.32,9.91-2.57,17.27-6.76,22.06c-4.19,4.8-9.62,7.19-16.3,7.19
		c-6.15,0-10.96-1.68-14.43-5.05c-3.47-3.37-5.21-7.78-5.21-13.24v-50.01h-12.96v-5.57c5.91-1,10.4-3.47,13.49-7.39
		C615.57,156.23,618.04,147.99,618.41,137.39"/>
	<path d="M693.2,171.18c-5.94,0-10.81,2.69-14.63,8.07c-3.82,5.38-5.73,13.87-5.73,25.48c0,11.82,1.9,20.46,5.69,25.92
		c3.79,5.46,8.68,8.19,14.67,8.19c6.2,0,11.22-2.73,15.07-8.19s5.76-14.39,5.76-26.79c0-11.5-1.9-19.82-5.69-24.96
		C704.55,173.75,699.51,171.18,693.2,171.18 M693.2,165.53c10.02,0,18.43,3.62,25.24,10.85c6.81,7.23,10.22,16.76,10.22,28.58
		c0,8.16-1.53,15.12-4.57,20.87c-3.05,5.75-7.39,10.29-13.04,13.63c-5.64,3.34-11.72,5.01-18.25,5.01
		c-9.65,0-17.82-3.66-24.53-10.97c-6.71-7.32-10.06-16.8-10.06-28.46c0-11.71,3.37-21.23,10.1-28.54
		C675.04,169.19,683.34,165.53,693.2,165.53"/>
</g>
</svg>
