<svg id="Layer_1" data-name="Layer 1" xmlns="http://www.w3.org/2000/svg" viewBox="0 0 156.94 156.94"><path d="M186.38,287.37l-.58-.58c-17.64-18.06-4.87-48.44,20.38-48.44h58.45c25.24,0,38,30.38,20.37,48.44l-.57.58a69.32,69.32,0,0,1-98.05,0m19.8-54.91c-25.25,0-38-30.39-20.38-48.44.19-.2.39-.39.58-.58a69.32,69.32,0,0,1,98.05,0l.57.58c17.65,18,4.87,48.44-20.37,48.44Zm107.69,2.94a78.07,78.07,0,0,0-11.36-40.68c-.65-1.08-1.33-2.14-2-3.19a78.71,78.71,0,0,0-12.3-14.21c-.93-.84-1.88-1.67-2.85-2.47-1.94-1.59-4-3.1-6-4.51-1-.71-2.11-1.39-3.19-2l-1.63-1a78.18,78.18,0,0,0-12.08-5.63c-.6-.22-1.2-.44-1.81-.64a79,79,0,0,0-44.78-1.65c-2.5.64-5,1.41-7.37,2.29a78.5,78.5,0,0,0-12.07,5.63l-1.63,1q-3.24,2-6.26,4.23-.77.56-1.5,1.14a78.65,78.65,0,0,0-14.43,14.79c-.38.5-.75,1-1.12,1.52A78.47,78.47,0,1,0,313.87,235.4" transform="translate(-156.94 -156.94)"/></svg>