<?xml version="1.0" encoding="utf-8"?>
<!-- Generator: Adobe Illustrator 26.0.2, SVG Export Plug-In . SVG Version: 6.00 Build 0)  -->
<svg version="1.1" id="Layer_1" xmlns="http://www.w3.org/2000/svg" xmlns:xlink="http://www.w3.org/1999/xlink" x="0px" y="0px"
	 viewBox="0 0 1024.04 352.76" style="enable-background:new 0 0 1024.04 352.76;" xml:space="preserve">
<path d="M512.65,197.62c2.82,0,5.24,1,7.25,3.01c2.01,2.01,3.01,4.45,3.01,7.33c0,2.94-1,5.43-3.01,7.46
	c-2.01,2.03-4.42,3.05-7.25,3.05c-2.83,0-5.27-1.02-7.33-3.05c-2.06-2.03-3.09-4.46-3.09-7.29c0-2.94,1.02-5.43,3.05-7.46
	C507.31,198.63,509.77,197.62,512.65,197.62 M512.48,134.29c2.88,0,5.31,0.99,7.29,2.97c1.98,1.98,2.97,4.41,2.97,7.29
	c0,2.94-0.98,5.38-2.92,7.33c-1.95,1.95-4.37,2.92-7.25,2.92c-2.88,0-5.33-1-7.33-3.01c-2.01-2.01-3.01-4.42-3.01-7.25
	c0-2.77,1-5.17,3.01-7.21C507.24,135.31,509.66,134.29,512.48,134.29 M153.59,117.59c-4.19,3.05-9.03,5.53-14.52,7.42
	c-5.49,1.89-12.65,3.41-21.49,4.53v5.85h18.82c2.03,0,3.7,0.57,5,1.7c1.3,1.13,1.95,2.52,1.95,4.16v79.94
	c0,2.32-0.71,4.17-2.12,5.55c-1.41,1.39-3.59,2.08-6.53,2.08h-14.07v6.36h61.04v-6.36h-16.45c-2.37,0-4.38-0.59-6.02-1.78
	c-1.13-0.85-1.7-2.06-1.7-3.65v-105.8H153.59z M878.36,117.59c-4.19,3.05-9.03,5.53-14.52,7.42c-5.49,1.89-12.65,3.41-21.49,4.53
	v5.85h18.82c2.03,0,3.7,0.57,5,1.7c1.3,1.13,1.95,2.52,1.95,4.16v79.94c0,2.32-0.71,4.17-2.12,5.55c-1.41,1.39-3.59,2.08-6.53,2.08
	h-14.07v6.36h61.04v-6.36H890c-2.37,0-4.38-0.59-6.02-1.78c-1.13-0.85-1.69-2.06-1.69-3.65v-105.8H878.36z"/>
</svg>
